<?xml version="1.0" standalone="no"?>
<!DOCTYPE svg PUBLIC "-//W3C//DTD SVG 20010904//EN"
 "http://www.w3.org/TR/2001/REC-SVG-20010904/DTD/svg10.dtd">
<svg version="1.0" xmlns="http://www.w3.org/2000/svg"
 width="1920.000000pt" height="1920.000000pt" viewBox="0 0 1920.000000 1920.000000"
 preserveAspectRatio="xMidYMid meet">
<metadata>
Created by potrace 1.14, written by Peter Selinger 2001-2017
</metadata>
<g transform="translate(0.000000,1920.000000) scale(0.100000,-0.100000)"
fill="#000000" stroke="none">
<path d="M9160 17814 c-586 -34 -1255 -146 -1795 -300 -299 -85 -702 -224
-870 -299 -16 -8 -73 -32 -125 -53 -351 -146 -825 -395 -1145 -600 -192 -123
-405 -269 -503 -345 -34 -26 -68 -45 -74 -41 -6 4 -8 3 -5 -3 3 -5 -17 -27
-46 -49 -111 -83 -325 -262 -512 -428 -84 -74 -467 -454 -545 -541 -155 -172
-265 -302 -416 -490 -100 -125 -258 -345 -382 -531 -76 -114 -232 -363 -232
-370 0 -3 -8 -18 -18 -32 -11 -15 -35 -56 -54 -92 -19 -36 -61 -112 -93 -170
-194 -352 -413 -863 -548 -1275 -211 -645 -320 -1170 -389 -1875 -20 -198 -22
-284 -22 -720 0 -437 2 -522 22 -720 69 -705 178 -1232 389 -1875 135 -412
354 -923 548 -1275 32 -58 74 -134 93 -170 19 -36 43 -77 54 -92 10 -14 18
-29 18 -32 0 -7 188 -307 247 -393 142 -209 276 -394 367 -508 151 -189 263
-321 416 -490 87 -97 446 -453 545 -541 180 -160 395 -340 512 -428 29 -22 49
-44 46 -49 -3 -6 -1 -7 5 -3 6 4 40 -15 74 -41 98 -76 311 -222 503 -345 322
-206 792 -453 1145 -600 52 -21 109 -45 125 -53 17 -7 73 -30 125 -50 736
-284 1426 -445 2250 -527 200 -20 282 -22 730 -22 448 0 530 2 730 22 824 82
1514 243 2250 527 52 20 109 43 125 50 17 8 73 32 125 53 353 147 823 394
1145 600 192 123 405 269 503 345 34 26 68 45 74 41 6 -4 8 -3 5 3 -3 5 17 27
46 49 111 83 325 262 512 428 84 74 467 454 545 541 155 172 265 302 416 490
100 125 258 345 382 531 76 114 232 363 232 370 0 3 8 18 18 32 11 15 35 56
54 92 19 36 61 112 93 170 98 178 227 448 307 640 21 52 45 109 53 125 35 79
138 358 188 510 213 649 319 1164 389 1875 20 198 22 284 22 720 0 436 -2 522
-22 720 -69 705 -178 1232 -389 1875 -50 152 -153 431 -188 510 -8 17 -32 73
-53 125 -80 192 -209 462 -307 640 -32 58 -74 134 -93 170 -19 36 -43 77 -54
92 -10 14 -18 29 -18 32 0 7 -156 256 -232 370 -124 186 -282 406 -382 531
-151 189 -264 322 -416 490 -93 103 -445 453 -537 535 -208 183 -407 349 -520
434 -29 22 -49 44 -46 49 3 6 1 7 -5 3 -6 -4 -40 15 -74 41 -98 76 -311 222
-503 345 -322 206 -792 453 -1145 600 -52 21 -108 45 -125 53 -16 7 -73 30
-125 50 -735 283 -1435 447 -2245 526 -180 17 -301 22 -665 24 -245 1 -474 1
-510 -1z"/>
</g>
</svg>
